<svg width="440" height="872" viewBox="0 0 440 872" fill="none" xmlns="http://www.w3.org/2000/svg">
<g opacity="0.05">
<path opacity="0.0526316" d="M-90.0007 691.019C-69.6326 718.212 -4.53424 763.716 92.9152 728.188C214.727 683.779 261.838 566.062 370.557 505.025C450.8 459.974 666.415 392.351 790.397 467.076" stroke="white" stroke-width="3"/>
<path opacity="0.105263" d="M-110.089 634.01C-92.6655 663.19 -32.6636 715.274 67.9526 690.163C193.723 658.774 252.838 546.644 367.319 497.345C451.815 460.958 673.293 416.323 788.812 503.643" stroke="white" stroke-width="3"/>
<path opacity="0.157895" d="M-125.267 576.232C-110.978 607.08 -56.7298 665.172 45.9509 650.753C174.302 632.73 244.773 527.415 363.762 490.394C451.585 463.07 676.499 441.911 782.29 540.87" stroke="white" stroke-width="3"/>
<path opacity="0.210526" d="M-135.479 518.208C-124.481 550.386 -76.5813 613.851 27.0388 610.281C156.564 605.82 237.619 508.474 359.812 484.137C450 466.175 675.886 468.724 770.79 578.238" stroke="white" stroke-width="3"/>
<path opacity="0.263158" d="M-140.726 460.455C-133.141 493.61 -92.1142 561.751 11.3101 569.071C140.59 578.22 231.341 489.909 355.4 478.524C446.965 470.12 671.348 496.35 754.324 615.219" stroke="white" stroke-width="3"/>
<path opacity="0.315789" d="M-141.064 403.493C-136.974 437.263 -103.269 509.334 -1.17408 527.462C126.445 550.122 225.897 471.815 350.463 473.504C442.401 474.752 662.823 524.374 732.963 651.296" stroke="white" stroke-width="3"/>
<path opacity="0.368421" d="M-136.603 347.835C-136.053 381.849 -110.04 457.06 -10.3923 485.799C114.167 521.721 221.232 454.275 344.939 469.022C436.244 479.906 650.289 552.378 706.824 685.962" stroke="white" stroke-width="3"/>
<path opacity="0.421053" d="M-127.504 293.974C-130.499 327.859 -112.464 405.387 -16.3554 444.42C103.78 493.212 217.283 437.366 338.776 465.008C428.448 485.41 633.771 579.937 676.082 718.72" stroke="white" stroke-width="3"/>
<path opacity="0.473684" d="M-113.98 242.388C-120.489 275.773 -110.628 354.769 -19.1116 403.67C95.2834 464.795 213.982 421.161 331.93 461.396C418.985 491.093 613.338 606.639 640.961 749.1" stroke="white" stroke-width="3"/>
<path opacity="0.526316" d="M-96.2911 193.533C-106.242 226.053 -104.663 305.65 -18.7418 363.882C88.6596 436.673 211.253 405.728 324.364 458.115C407.849 496.781 589.101 632.081 601.734 776.659" stroke="white" stroke-width="3"/>
<path opacity="0.578947" d="M-74.7475 147.824C-88.031 179.121 -94.7518 258.448 -15.3671 325.374C83.8639 409.032 209.009 391.116 316.044 455.081C395.043 502.292 561.21 655.863 558.714 800.974" stroke="white" stroke-width="3"/>
<path opacity="0.631579" d="M-49.694 105.652C-66.1648 135.385 -81.1117 213.572 -9.13308 288.458C80.8402 382.067 207.166 377.376 306.952 452.218C380.601 507.457 529.86 677.617 512.263 821.671" stroke="white" stroke-width="3"/>
<path opacity="0.684211" d="M-21.5225 67.3643C-41.0001 95.2065 -64.0094 171.398 -0.225439 253.424C79.5045 355.957 205.627 364.544 297.07 449.442C364.562 512.104 495.279 696.989 462.773 838.408" stroke="white" stroke-width="3"/>
<path opacity="0.736842" d="M9.34814 33.2682C-12.9229 58.9148 -43.7424 132.275 11.148 220.543C79.761 330.877 204.298 352.646 286.397 446.672C346.992 516.07 457.735 713.654 410.677 850.888" stroke="white" stroke-width="3"/>
<path opacity="0.789474" d="M42.465 3.62261C17.6445 26.7926 -20.6475 96.518 24.7479 190.06C81.4922 306.987 203.079 341.701 274.935 443.823C327.969 519.197 417.525 727.315 356.429 858.861" stroke="white" stroke-width="3"/>
<path opacity="0.842105" d="M77.3535 -21.361C50.2555 -0.921555 4.91043 64.4053 40.3136 162.197C84.5675 284.436 201.873 331.713 262.697 440.813C307.59 521.337 374.977 737.709 300.514 862.126" stroke="white" stroke-width="3"/>
<path opacity="0.894737" d="M113.519 -41.5217C84.4403 -24.0367 32.5389 36.1758 57.5619 137.145C88.8406 263.357 200.579 322.679 249.706 437.562C285.965 522.354 330.445 744.609 243.43 860.534" stroke="white" stroke-width="3"/>
<path opacity="0.947368" d="M150.448 -56.7517C119.708 -42.4126 61.8189 12.0258 76.1875 115.067C94.1483 243.868 199.095 314.586 235.986 433.993C263.215 522.124 284.3 747.827 185.687 853.989" stroke="white" stroke-width="3"/>
<path d="M187.628 -67C155.562 -55.964 92.3195 -7.89608 95.8764 96.0876C100.322 226.067 197.328 307.407 221.58 430.029C239.479 520.533 236.939 747.212 127.807 842.448" stroke="white" stroke-width="3"/>
</g>
</svg>
