<svg width="48" height="48" viewBox="0 0 48 48" fill="none" xmlns="http://www.w3.org/2000/svg">
<path d="M8 40C6.9 40 5.95867 39.6087 5.176 38.826C4.39333 38.0433 4.00133 37.1013 4 36V28H14C14 28.5667 14.192 29.042 14.576 29.426C14.96 29.81 15.4347 30.0013 16 30C16.5333 30 16.9087 29.758 17.126 29.274C17.3433 28.79 17.6347 28.3653 18 28H30C30 28.5667 30.192 29.042 30.576 29.426C30.96 29.81 31.4347 30.0013 32 30C32.5333 30 32.9087 29.758 33.126 29.274C33.3433 28.79 33.6347 28.3653 34 28H44V36C44 37.1 43.6087 38.042 42.826 38.826C42.0433 39.61 41.1013 40.0013 40 40H8ZM4.85 24L9 14.4C9.3 13.6667 9.78333 13.0833 10.45 12.65C11.1167 12.2167 11.8333 12 12.6 12H14V10C14 8.9 14.392 7.958 15.176 7.174C15.96 6.39 16.9013 5.99867 18 6H30C31.1 6 32.042 6.392 32.826 7.176C33.61 7.96 34.0013 8.90134 34 10V12H35.4C36.1667 12 36.8833 12.2167 37.55 12.65C38.2167 13.0833 38.7 13.6667 39 14.4L43.15 24H34C34 23.4333 33.808 22.9587 33.424 22.576C33.04 22.1933 32.5653 22.0013 32 22C31.4667 22 31.092 22.242 30.876 22.726C30.66 23.21 30.368 23.6347 30 24H18C18 23.4333 17.808 22.9587 17.424 22.576C17.04 22.1933 16.5653 22.0013 16 22C15.4667 22 15.092 22.242 14.876 22.726C14.66 23.21 14.368 23.6347 14 24H4.85ZM18 12H30V10H18V12Z" fill="white"/>
</svg>
