<?xml version="1.0" encoding="iso-8859-1"?>
<!-- Uploaded to: SVG Repo, www.svgrepo.com, Generator: SVG Repo Mixer Tools -->
<svg fill="#000000" height="800px" width="800px" version="1.1" id="Layer_1" xmlns="http://www.w3.org/2000/svg" xmlns:xlink="http://www.w3.org/1999/xlink" 
	 viewBox="0 0 512 512" xml:space="preserve">
<g>
	<g>
		<path d="M117.15,244.948c-0.972,8.345-1.624,16.841-1.972,25.422H21.675c-9.455,0-17.12,7.665-17.12,17.12
			c0,9.455,7.665,17.12,17.12,17.12h93.735c1.545,28.898,6.466,57.856,14.642,84.617l-76.391,76.392
			c-6.686,6.686-6.686,17.525,0,24.211c6.685,6.686,17.525,6.687,24.211,0l65.45-65.45c20.875,45.532,52.994,79.707,95.559,87.621
			V244.948H117.15z"/>
	</g>
</g>
<g>
	<g>
		<path d="M490.325,270.37h-93.484c-0.358-8.55-1.015-17.042-1.992-25.422H273.12V512c42.279-7.861,74.604-41.844,95.641-87.539
			l65.368,65.368c6.685,6.685,17.525,6.687,24.211,0c6.686-6.685,6.686-17.525,0-24.211l-76.286-76.287
			c8.168-26.661,13.108-55.604,14.615-84.722h93.656c9.455,0,17.12-7.665,17.12-17.12S499.779,270.37,490.325,270.37z"/>
	</g>
</g>
<g>
	<g>
		<path d="M458.339,85.15c-6.685-6.686-17.525-6.686-24.211,0l-65.032,65.032c-19.435-41.886-46.555-68.962-75.925-81.218
			l40.096-34.724h72.927c9.455,0,17.12-7.665,17.12-17.12S415.648,0,406.194,0h-79.309c-4.117,0-8.095,1.484-11.208,4.178
			l-59.676,51.681L196.325,4.178C193.213,1.484,189.234,0,185.117,0h-79.309c-9.455,0-17.12,7.665-17.12,17.12
			s7.665,17.12,17.12,17.12h72.926l40.082,34.712c-29.366,12.246-56.483,39.317-75.919,81.226L77.871,85.15
			c-6.685-6.686-17.525-6.686-24.211,0s-6.686,17.525,0,24.211l75.913,75.913c-2.473,8.085-4.71,16.558-6.676,25.434h266.203
			c-1.965-8.876-4.202-17.348-6.677-25.433l75.915-75.915C465.025,102.675,465.025,91.836,458.339,85.15z"/>
	</g>
</g>
</svg>