<svg width="48" height="48" viewBox="0 0 48 48" fill="none" xmlns="http://www.w3.org/2000/svg">
<path d="M37.5 16.845C37.5 12.871 35.968 9.755 33.495 7.645C31.085 5.588 27.962 4.632 24.923 4.513C19.101 4.285 12.038 7.238 10.56 13.841C10.4884 14.1614 10.4805 14.4928 10.537 14.8163C10.5934 15.1397 10.713 15.4489 10.8889 15.7261C11.0648 16.0033 11.2936 16.2432 11.5623 16.432C11.8309 16.6208 12.1341 16.7549 12.4545 16.8265C12.7749 16.8981 13.1063 16.906 13.4298 16.8495C13.7532 16.7931 14.0624 16.6735 14.3396 16.4976C14.6168 16.3216 14.8567 16.0928 15.0455 15.8242C15.2343 15.5556 15.3684 15.2524 15.44 14.932C16.162 11.702 20.1 9.328 24.727 9.509C26.913 9.595 28.877 10.278 30.249 11.449C31.557 12.564 32.5 14.264 32.5 16.845C32.5 19.394 31.228 21.071 29.372 22.255C27.426 23.497 24.984 24.068 23.326 24.184C22.6946 24.2281 22.1034 24.5099 21.6717 24.9728C21.24 25.4357 21 26.0451 21 26.678V31C21 31.663 21.2634 32.2989 21.7322 32.7678C22.2011 33.2366 22.8369 33.5 23.5 33.5C24.163 33.5 24.7989 33.2366 25.2678 32.7678C25.7366 32.2989 26 31.663 26 31V28.849C27.91 28.461 30.102 27.721 32.062 26.471C34.978 24.61 37.5 21.507 37.5 16.845ZM24 36C22.9391 36 21.9217 36.4214 21.1716 37.1716C20.4214 37.9217 20 38.9391 20 40C20 41.0609 20.4214 42.0783 21.1716 42.8284C21.9217 43.5786 22.9391 44 24 44C25.0609 44 26.0783 43.5786 26.8284 42.8284C27.5786 42.0783 28 41.0609 28 40C28 38.9391 27.5786 37.9217 26.8284 37.1716C26.0783 36.4214 25.0609 36 24 36Z" fill="white" fill-opacity="0.5"/>
<path fill-rule="evenodd" clip-rule="evenodd" d="M24 28.849C24 28.3877 24.1595 27.9405 24.4514 27.5833C24.7434 27.2261 25.1499 26.9808 25.602 26.889C27.337 26.536 29.282 25.872 30.986 24.785C33.481 23.192 35.5 20.659 35.5 16.845C35.5 13.427 34.203 10.879 32.197 9.166C30.202 7.464 27.543 6.617 24.845 6.512C22.271 6.411 19.428 7.02 17.107 8.35C14.812 9.665 13.104 11.63 12.512 14.277C12.4976 14.3411 12.496 14.4074 12.5072 14.4721C12.5185 14.5368 12.5423 14.5987 12.5775 14.6541C12.6126 14.7096 12.6584 14.7576 12.7121 14.7954C12.7658 14.8333 12.8264 14.8601 12.8905 14.8745C12.9546 14.8889 13.0209 14.8905 13.0856 14.8793C13.1503 14.868 13.2121 14.8441 13.2676 14.809C13.3231 14.7738 13.3711 14.7281 13.4089 14.6744C13.4467 14.6207 13.4736 14.5601 13.488 14.496C14.508 9.938 19.67 7.309 24.805 7.511C27.334 7.61 29.761 8.403 31.547 9.927C33.321 11.44 34.5 13.706 34.5 16.845C34.5 20.233 32.734 22.483 30.448 23.942C28.15 25.408 25.362 26.047 23.465 26.179C23.3387 26.1879 23.2205 26.2443 23.1342 26.3369C23.0479 26.4295 22.9999 26.5514 23 26.678V31C23 31.1326 23.0527 31.2598 23.1464 31.3536C23.2402 31.4473 23.3674 31.5 23.5 31.5C23.6326 31.5 23.7598 31.4473 23.8535 31.3536C23.9473 31.2598 24 31.1326 24 31V28.849ZM24 38C23.4696 38 22.9609 38.2107 22.5858 38.5858C22.2107 38.9609 22 39.4696 22 40C22 40.5304 22.2107 41.0391 22.5858 41.4142C22.9609 41.7893 23.4696 42 24 42C24.5304 42 25.0391 41.7893 25.4142 41.4142C25.7893 41.0391 26 40.5304 26 40C26 39.4696 25.7893 38.9609 25.4142 38.5858C25.0391 38.2107 24.5304 38 24 38ZM33.495 7.645C35.968 9.755 37.5 12.871 37.5 16.845C37.5 21.507 34.978 24.61 32.062 26.471C30.102 27.721 27.911 28.461 26 28.849V31C26 31.663 25.7366 32.2989 25.2678 32.7678C24.7989 33.2366 24.163 33.5 23.5 33.5C22.8369 33.5 22.2011 33.2366 21.7322 32.7678C21.2634 32.2989 21 31.663 21 31V26.678C21 26.0451 21.24 25.4357 21.6717 24.9728C22.1034 24.5099 22.6946 24.2281 23.326 24.184C24.984 24.068 27.426 23.497 29.372 22.256C31.228 21.071 32.5 19.394 32.5 16.845C32.5 14.264 31.557 12.565 30.25 11.448C28.878 10.278 26.913 9.595 24.727 9.509C20.099 9.328 16.162 11.702 15.44 14.932C15.3684 15.2524 15.2343 15.5556 15.0455 15.8242C14.8567 16.0928 14.6168 16.3216 14.3396 16.4976C14.0624 16.6735 13.7532 16.7931 13.4298 16.8495C13.1063 16.906 12.7749 16.8981 12.4545 16.8265C12.1341 16.7549 11.8309 16.6208 11.5623 16.432C11.2936 16.2432 11.0648 16.0033 10.8889 15.7261C10.713 15.4489 10.5934 15.1397 10.537 14.8163C10.4805 14.4928 10.4884 14.1614 10.56 13.841C12.038 7.238 19.1 4.285 24.923 4.513C27.962 4.633 31.085 5.588 33.495 7.645ZM20 40C20 38.9391 20.4214 37.9217 21.1716 37.1716C21.9217 36.4214 22.9391 36 24 36C25.0609 36 26.0783 36.4214 26.8284 37.1716C27.5786 37.9217 28 38.9391 28 40C28 41.0609 27.5786 42.0783 26.8284 42.8284C26.0783 43.5786 25.0609 44 24 44C22.9391 44 21.9217 43.5786 21.1716 42.8284C20.4214 42.0783 20 41.0609 20 40Z" fill="white" fill-opacity="0.5"/>
</svg>
