<svg width="48" height="48" viewBox="0 0 48 48" fill="none" xmlns="http://www.w3.org/2000/svg">
<path fill-rule="evenodd" clip-rule="evenodd" d="M13.0701 26.285C14.0321 27.461 16.4801 31.818 17.0001 34H31.0001C31.5201 31.82 33.9651 27.463 34.9271 26.288C36.5709 24.2826 37.6057 21.8482 37.9091 19.273C38.2082 16.7027 37.7607 14.1007 36.6201 11.778C35.4692 9.43769 33.6787 7.4714 31.4561 6.107C29.2147 4.72746 26.634 3.99798 24.0021 4C21.3651 4 18.7811 4.73 16.5481 6.105C14.3248 7.46884 12.5336 9.43479 11.3821 11.775C10.2408 14.0968 9.79222 16.6981 10.0901 19.268C10.3891 21.835 11.4221 24.268 13.0701 26.285ZM25.0001 12L19.0001 21H23.0001V27L29.0001 18H25.0001V12Z" fill="white" fill-opacity="0.5"/>
<path d="M17 37C17 36.7348 17.1054 36.4804 17.2929 36.2929C17.4804 36.1054 17.7348 36 18 36H30C30.2652 36 30.5196 36.1054 30.7071 36.2929C30.8946 36.4804 31 36.7348 31 37C31 37.2652 30.8946 37.5196 30.7071 37.7071C30.5196 37.8946 30.2652 38 30 38H18C17.7348 38 17.4804 37.8946 17.2929 37.7071C17.1054 37.5196 17 37.2652 17 37ZM31 40H17V42C17 42.5304 17.2107 43.0391 17.5858 43.4142C17.9609 43.7893 18.4696 44 19 44H29C29.5304 44 30.0391 43.7893 30.4142 43.4142C30.7893 43.0391 31 42.5304 31 42V40Z" fill="white" fill-opacity="0.5"/>
</svg>
