<svg width="48" height="48" viewBox="0 0 48 48" fill="none" xmlns="http://www.w3.org/2000/svg">
<path d="M38.3832 3.324C39.2468 2.65888 40.323 2.3308 41.4108 2.40102C42.4986 2.47124 43.5236 2.93496 44.2946 3.7056C45.0655 4.47624 45.5296 5.50111 45.6003 6.58888C45.6709 7.67664 45.3432 8.75293 44.6784 9.6168L35.0064 22.2648C32.2838 25.8247 28.8124 28.743 24.8376 30.8136C24.3457 28.9791 23.3797 27.3063 22.0367 25.9633C20.6937 24.6203 19.0209 23.6543 17.1864 23.1624C19.2573 19.1885 22.1756 15.718 25.7352 12.996L38.3832 3.324ZM14.4 26.4C12.4905 26.4 10.6591 27.1586 9.30885 28.5088C7.95859 29.8591 7.20002 31.6904 7.20002 33.6C7.20043 33.8039 7.14886 34.0046 7.05018 34.1831C6.9515 34.3615 6.80896 34.5119 6.63602 34.62C6.46309 34.7281 6.26546 34.7903 6.0618 34.8008C5.85813 34.8113 5.65516 34.7697 5.47202 34.68C5.14944 34.5215 4.78679 34.4632 4.43079 34.5126C4.07479 34.5621 3.74173 34.7169 3.47452 34.9573C3.2073 35.1977 3.01816 35.5125 2.93146 35.8613C2.84475 36.2101 2.86445 36.5769 2.98802 36.9144C3.76725 39.028 5.26478 40.8004 7.21867 41.9215C9.17256 43.0427 11.4584 43.4412 13.6764 43.0473C15.8944 42.6535 17.9033 41.4924 19.3518 39.7671C20.8003 38.0419 21.5961 35.8623 21.6 33.6096V33.6C21.5977 32.2623 21.224 30.9516 20.5205 29.8138C19.8171 28.6761 18.8116 27.7559 17.616 27.156C16.6171 26.6581 15.5161 26.3993 14.4 26.4Z" fill="white" fill-opacity="0.5"/>
</svg>
