<svg width="48" height="48" viewBox="0 0 48 48" fill="none" xmlns="http://www.w3.org/2000/svg">
<path d="M42 30V26H35.86C35.76 25.22 35.62 24.46 35.42 23.72L40.58 20.74L38.58 17.28L33.84 20C33.28 19.04 32.6 18.18 31.86 17.42C31.94 16.96 32 16.5 32 16C32 14.4 31.52 12.9 30.7 11.64L34 8.34L31.18 5.52L27.74 8.96C24.38 7.18 21.54 8.3 20.28 8.96L16.82 5.52L14 8.34L17.3 11.64C16.4538 12.9369 16.0022 14.4515 16 16C16 16.5 16.06 16.96 16.14 17.44C15.4 18.2 14.72 19.06 14.16 20L9.42 17.26L7.42 20.72L12.58 23.7C12.38 24.44 12.24 25.2 12.14 25.98H6V29.98H12.14C12.24 30.76 12.38 31.52 12.58 32.26L7.42 35.24L9.42 38.7L14.16 36C16.32 39.62 19.92 42 24 42C28.08 42 31.68 39.62 33.84 36L38.58 38.74L40.58 35.28L35.42 32.3C35.62 31.56 35.76 30.8 35.86 30.02H42V30ZM26 34H22V22H26V34Z" fill="white" fill-opacity="0.5"/>
</svg>
