<svg width="48" height="48" viewBox="0 0 48 48" fill="none" xmlns="http://www.w3.org/2000/svg">
<path d="M20 12H28V8H20V12ZM36 46C33.2333 46 30.8753 45.0247 28.926 43.074C26.9767 41.1233 26.0013 38.7653 26 36C25.9987 33.2347 26.974 30.8767 28.926 28.926C30.878 26.9753 33.236 26 36 26C38.764 26 41.1227 26.9753 43.076 28.926C45.0293 30.8767 46.004 33.2347 46 36C45.996 38.7653 45.0207 41.124 43.074 43.076C41.1273 45.028 38.7693 46.0027 36 46ZM8 42C6.9 42 5.95867 41.6087 5.176 40.826C4.39333 40.0433 4.00133 39.1013 4 38V16C4 14.9 4.392 13.9587 5.176 13.176C5.96 12.3933 6.90133 12.0013 8 12H16V8C16 6.9 16.392 5.95867 17.176 5.176C17.96 4.39333 18.9013 4.00133 20 4H28C29.1 4 30.042 4.392 30.826 5.176C31.61 5.96 32.0013 6.90133 32 8V12H40C41.1 12 42.042 12.392 42.826 13.176C43.61 13.96 44.0013 14.9013 44 16V24.55C42.8333 23.7167 41.5667 23.0833 40.2 22.65C38.8333 22.2167 37.4333 22 36 22C32.1333 22 28.8333 23.3667 26.1 26.1C23.3667 28.8333 22 32.1333 22 36C22 37.0333 22.1087 38.0587 22.326 39.076C22.5433 40.0933 22.8847 41.068 23.35 42H8ZM36 42C36.2667 42 36.5 41.9 36.7 41.7C36.9 41.5 37 41.2667 37 41C37 40.7333 36.9 40.5 36.7 40.3C36.5 40.1 36.2667 40 36 40C35.7333 40 35.5 40.1 35.3 40.3C35.1 40.5 35 40.7333 35 41C35 41.2667 35.1 41.5 35.3 41.7C35.5 41.9 35.7333 42 36 42ZM35 38H37V30H35V38Z" fill="white"/>
</svg>
