<svg width="48" height="48" viewBox="0 0 48 48" fill="none" xmlns="http://www.w3.org/2000/svg">
<path d="M44.1321 42.6202C44.1321 40.7059 40.6396 35.3558 40.6396 35.3558C40.6396 35.3558 37.0944 40.7059 37.0944 42.6202C37.0944 44.5306 38.6707 46.08 40.6137 46.08C42.5568 46.08 44.1321 44.5306 44.1321 42.6202ZM18.8793 12.6442H11.8416V5.70624H13.7606V1.92H0.959961V5.70624H2.87996V16.4294C2.87996 19.2173 5.17244 21.4762 7.99964 21.4762H18.8793V23.3693H22.7203V10.753H18.8793V12.6442ZM45.118 28.415V17.6918C45.118 14.905 42.8265 12.6451 40.0022 12.6451H29.1206V10.7539H25.2796V23.3712H29.1206V21.4771H36.1593V28.415H34.2422V32.2013H47.04V28.415H45.118Z" fill="white" fill-opacity="0.5"/>
</svg>
