<svg width="48" height="48" viewBox="0 0 48 48" fill="none" xmlns="http://www.w3.org/2000/svg">
<path d="M42.8 28.5L28.5 42.8C28.1 43.2 27.65 43.5 27.15 43.7C26.65 43.9 26.15 44 25.65 44C25.15 44 24.65 43.9 24.15 43.7C23.65 43.5 23.2 43.2 22.8 42.8L5.15 25.15C4.78333 24.7833 4.5 24.3587 4.3 23.876C4.1 23.3933 4 22.8847 4 22.35V8C4 6.9 4.392 5.95867 5.176 5.176C5.96 4.39333 6.90133 4.00133 8 4H22.35C22.8833 4 23.4 4.10867 23.9 4.326C24.4 4.54333 24.8333 4.83467 25.2 5.2L42.8 22.85C43.2 23.25 43.492 23.7 43.676 24.2C43.86 24.7 43.9513 25.2 43.95 25.7C43.9487 26.2 43.8573 26.692 43.676 27.176C43.4947 27.66 43.2027 28.1013 42.8 28.5ZM13 16C13.8333 16 14.542 15.7087 15.126 15.126C15.71 14.5433 16.0013 13.8347 16 13C15.9987 12.1653 15.7073 11.4573 15.126 10.876C14.5447 10.2947 13.836 10.0027 13 10C12.164 9.99733 11.456 10.2893 10.876 10.876C10.296 11.4627 10.004 12.1707 10 13C9.996 13.8293 10.288 14.538 10.876 15.126C11.464 15.714 12.172 16.0053 13 16Z" fill="white"/>
</svg>
