<svg width="48" height="48" viewBox="0 0 48 48" fill="none" xmlns="http://www.w3.org/2000/svg">
<path d="M40.6359 7.96406L24.7078 2.53594C24.5156 2.47031 24.2578 2.4375 24 2.4375C23.7422 2.4375 23.4844 2.47031 23.2922 2.53594L7.36406 7.96406C6.975 8.09531 6.65625 8.54531 6.65625 8.95781V31.5703C6.65625 31.9828 6.92344 32.5266 7.24688 32.7844L23.4047 45.375C23.5687 45.5016 23.7797 45.5672 23.9953 45.5672C24.2109 45.5672 24.4266 45.5016 24.5859 45.375L40.7438 32.7844C41.0672 32.5312 41.3344 31.9875 41.3344 31.5703V8.95781C41.3438 8.54531 41.025 8.1 40.6359 7.96406ZM30.3891 15.6L26.2781 23.1516H28.4203C28.6781 23.1516 28.8891 23.3625 28.8891 23.6203V24.6187C28.8891 24.8766 28.6781 25.0875 28.4203 25.0875H25.4484V26.4797H28.4203C28.6781 26.4797 28.8891 26.6906 28.8891 26.9484V27.9469C28.8891 28.2047 28.6781 28.4156 28.4203 28.4156H25.4484V30.8437C25.4484 31.1016 25.2375 31.3125 24.9797 31.3125H23.0438C22.7859 31.3125 22.575 31.1016 22.575 30.8437V28.4156H19.6172C19.3594 28.4156 19.1484 28.2047 19.1484 27.9469V26.9484C19.1484 26.6906 19.3594 26.4797 19.6172 26.4797H22.575V25.0875H19.6172C19.3594 25.0875 19.1484 24.8766 19.1484 24.6187V23.6203C19.1484 23.3625 19.3594 23.1516 19.6172 23.1516H21.7359L17.6109 15.6C17.4891 15.375 17.5688 15.0891 17.7984 14.9625C17.8688 14.925 17.9438 14.9062 18.0234 14.9062H20.1797C20.3578 14.9062 20.5172 15.0047 20.5969 15.1641L24.0141 21.9281L27.4453 15.1641C27.4843 15.0868 27.5439 15.0217 27.6175 14.9762C27.6911 14.9307 27.7759 14.9065 27.8625 14.9062H29.9719C30.2297 14.9062 30.4406 15.1172 30.4406 15.375C30.4453 15.4547 30.4266 15.5297 30.3891 15.6Z" fill="white"/>
</svg>
