<?xml version="1.0" encoding="UTF-8"?>
<!-- Uploaded to: SVG Find, www.svgrepo.com, Generator: SVG Find Mixer Tools -->
<svg fill="#000000" width="800px" height="800px" version="1.1" viewBox="144 144 512 512" xmlns="http://www.w3.org/2000/svg">
 <g>
  <path d="m635.06 343c-4.5859-4.5508-10.641-7.0703-17.105-7.0703h-90.949c0.074219-1.6172 0.52734-4.2109 2.4062-6.3555 2.293-2.668 6.2422-4.0234 11.73-4.0234 1.543-0.11328 37.297-2.293 53.879-32.223 0.48828-0.78906 11.543-19.137 9.9648-38.574-0.41406-5.1875-0.75391-12.707-0.97656-21.695-0.039062-1.0547-0.86328-1.8438-1.8789-1.8438h-0.039062c-1.0547 0-1.8789 0.86328-1.8438 1.918 0.22656 9.0625 0.5625 16.656 0.97656 21.918 1.4648 18.199-9.2852 36.133-9.4375 36.355-15.602 28.199-50.457 30.34-50.719 30.379-6.543 0-11.43 1.7656-14.512 5.3008-2.6328 3.082-3.2344 6.6172-3.3086 8.8359l-59.48 0.039063c4.2109-57.402 38.949-66.691 57.711-71.691 3.1211-0.82812 5.8281-1.543 7.8945-2.3672 9.25-3.6094 15.191-12.371 15.191-22.258v-6.543c0-1.0547-0.82812-1.8789-1.8789-1.8789-1.0156 0-1.8789 0.82812-1.8789 1.8789v6.543c0 8.3477-5 15.715-12.785 18.762-1.918 0.71484-4.5117 1.4297-7.5195 2.2188-19.703 5.2656-56.207 15.039-60.496 75.348l-159.79 0.039063c0.074218-2.1797 0.60156-5.9023 3.2695-8.9492 3.1211-3.5703 8.3086-5.375 15.566-5.375 0.48828-0.039062 47.938-2.8945 69.254-41.434 0.64062-0.97656 14.852-24.551 12.785-49.59-0.52734-6.6172-0.94141-16.355-1.2422-28.086-0.039062-1.0156-0.86328-1.8438-1.8789-1.8438h-0.039062c-1.0547 0.039063-1.8789 0.90234-1.8438 1.918 0.30078 11.992 0.71484 21.508 1.2773 28.348 1.918 23.762-12.105 47.074-12.293 47.375-20.34 36.734-65.758 39.516-66.133 39.555-8.3086 0-14.477 2.2578-18.309 6.6914-3.4609 3.9844-4.0977 8.6484-4.1719 11.391l-78.094-0.003907c5.375-74.934 50.684-87.078 75.121-93.582 4.0234-1.0898 7.4805-1.9922 10.152-3.0469 11.73-4.625 19.324-15.715 19.324-28.273v-8.4961c0-1.0547-0.82813-1.8789-1.8789-1.8789-1.0547 0-1.8789 0.82812-1.8789 1.8789v8.4961c0 11.016-6.6562 20.715-16.957 24.777-2.4453 0.94141-5.8281 1.8438-9.7383 2.8945-25.379 6.7695-72.449 19.363-77.902 97.266h-0.375c-18.234 0-33.727 7.8203-41.508 20.906-23.348 39.363-15.453 81.551-2.2578 99.559-1.8438 14.512 5.7539 33.875 11.582 42.562 5.5273 8.1602 16.695 17.559 28.461 23.949 0.26172 0.15234 0.5625 0.22656 0.86328 0.22656h406.58c13.348 0 24.215-10.867 24.215-24.215l-0.003907-138.89c0-6.4648-2.5195-12.559-7.1055-17.145zm-459.11 15.867c7.0703-11.957 21.395-19.062 38.273-19.062l368.91-0.11328c-14.625 16.805-23.461 38.461-24.777 61.547-0.86328 14.738-0.22656 33.012 4.1367 52.898l-389.06 0.003906c-12.52-17.223-19.926-57.449 2.5195-95.273zm35.906 160.62c-11.129-6.0898-21.543-14.891-26.695-22.52-5.6016-8.3477-12.293-26.168-11.016-39.062h389.18c4.7383 19.664 13.273 40.758 27.672 61.586zm426.55-20.453c0 11.281-9.1758 20.453-20.453 20.453h-22.41c-30.754-43.164-35.191-87.98-33.461-118.02 1.3906-23.387 10.602-45.305 25.98-61.773h29.891c5.4531 0 10.566 2.1055 14.438 5.9766 3.8711 3.8711 6.0156 8.9844 6.0156 14.477z"/>
  <path d="m200.47 475.01c-0.074219-0.1875-0.039062-0.30078 0-0.41406s0.15234-0.22656 0.375-0.22656h351.95c1.0547 0 1.8789-0.82813 1.8789-1.8789 0-1.0547-0.82812-1.8789-1.8789-1.8789l-351.95-0.003906c-1.5039 0-2.8203 0.75391-3.6094 2.0664-0.75391 1.2773-0.78906 2.8203-0.074219 4.1367l2.707 4.9648c0.33984 0.64062 0.97656 0.97656 1.6562 0.97656 0.30078 0 0.60156-0.074219 0.90234-0.22656 0.90234-0.48828 1.2422-1.6562 0.75391-2.5586z"/>
  <path d="m210.21 490.98c-0.11328-0.1875-0.039062-0.33984 0-0.41406 0.039063-0.074218 0.15234-0.1875 0.375-0.1875h347.33c1.0547 0 1.8789-0.82812 1.8789-1.8789 0-1.0547-0.82812-1.8789-1.8789-1.8789h-347.33c-1.5039 0-2.8203 0.75391-3.6094 2.0312-0.75391 1.2773-0.78906 2.8203-0.074218 4.1367l2.7812 5.0391c0.33984 0.64062 0.97656 0.97656 1.6562 0.97656 0.30078 0 0.60156-0.074219 0.90234-0.22656 0.90234-0.48828 1.2422-1.6562 0.75391-2.5586z"/>
  <path d="m563.06 502.6h-342.89c-1.5039 0-2.8203 0.75391-3.6094 2.0312-0.75391 1.2773-0.78906 2.8203-0.074219 4.1367l2.9336 5.375c0.33984 0.64062 0.97656 0.97656 1.6562 0.97656 0.30078 0 0.60156-0.074219 0.90234-0.22656 0.90234-0.48828 1.2422-1.6562 0.75391-2.5586l-2.9336-5.375c-0.11328-0.1875-0.039063-0.33984 0-0.41406 0.074219-0.074219 0.15234-0.1875 0.375-0.1875h342.89c1.0547 0 1.8789-0.82812 1.8789-1.8789s-0.82812-1.8789-1.8828-1.8789z"/>
  <path d="m439.06 412.93c-0.375 0.26172-0.75391 0.375-1.1641 0.375-0.5625 0-1.0898-0.22656-1.4648-0.67578-0.22656-0.26172-4.7383-5.5664-15.078-2.5586-2.8945 0.86328-8.7617 0.45312-12.406-3.3477-0.60156 0.90234-1.2773 1.7656-2.0312 2.5195 0.5625 1.2031 1.918 3.2344 5.1133 3.7617 0.22656 0 7.2188 0.90234 9.25 7.2578 0.30078 1.0156-0.22656 2.0664-1.2031 2.3672-0.22656 0.039063-0.41406 0.074219-0.60156 0.074219-0.78906 0-1.5039-0.48828-1.7656-1.3164-1.2773-4.0625-6.1289-4.6641-6.168-4.6641-4.25-0.67578-6.4297-3.082-7.5195-5-0.5625 0.375-1.1289 0.64063-1.6914 0.97656-0.90234 4.5508 3.2344 8.2734 4.5508 8.9492 11.992 6.0898 11.355 15.414 11.316 15.828-0.074219 0.97656-0.90234 1.6914-1.8789 1.6914l-0.15625 0.003906c-1.0547-0.074219-1.8047-0.97656-1.7305-1.9922 0.039062-0.33984 0.33984-7.293-9.25-12.145-2.6328-1.3555-6.5781-5.5664-6.7305-10.715-0.97656 0.30078-1.9922 0.45312-3.0078 0.60156-0.52734 4.625 0.41406 5.6016 1.7305 6.8789 0.45312 0.41406 0.94141 0.86328 1.3906 1.4297 3.5703 4.4375 0.78906 10.68 0.67578 10.941-0.33984 0.67578-1.0156 1.0898-1.7305 1.0898-0.26172 0-0.52734-0.074219-0.75391-0.1875-0.97656-0.41406-1.3906-1.543-0.94141-2.4805 0-0.039062 1.918-4.3633-0.1875-6.9922-0.33984-0.41406-0.71484-0.75391-1.0547-1.0898-2.2578-2.2188-3.7969-4.2852-2.707-11.504 0-0.074219-0.15234-1.543 1.8047-1.6172 8.3828-0.375 14.926-7.2188 14.926-15.602-0.039062-8.1953-6.4297-15.039-14.59-15.527-0.30078-0.039063-1.2422-0.22656-1.6562-0.97656-3.6094-6.9922 0.97656-10.754 2.5938-12.031 2.668-2.1445 2.5938-6.168 2.5938-6.2031 0-1.0547 0.78906-1.918 1.8438-1.918h0.039063c1.0156 0 1.8438 0.78906 1.8789 1.8047 0 0.22656 0.15234 5.9414-4.0234 9.25-1.957 1.5781-3.5352 3.2695-2.0312 6.4688 0.71484 0.074219 1.4297 0.1875 2.1055 0.33984 0.074219-5.1875 4.0625-9.4766 6.7305-10.828 9.5859-4.9258 9.2109-11.918 9.2109-12.184-0.074219-1.0547 0.67578-1.957 1.7305-2.0312 1.0898-0.039062 1.918 0.67578 1.9922 1.6914 0.039063 0.41406 0.71484 9.6992-11.242 15.867-1.3164 0.67578-5.3398 4.3242-4.5508 8.7969 1.543 0.75391 2.9336 1.7305 4.25 2.8203 1.7656-0.375 7.1797-2.1797 10.113-10.789 1.1289-3.4219 6.168-9.3242 12.973-8.3086 1.0156 0.15234 1.7305 1.1289 1.5781 2.1445-0.15234 1.0156-1.1641 1.7305-2.1445 1.5781-4.9648-0.75391-8.3477 4.2852-8.875 5.7891-2.7812 8.1602-7.5938 11.355-10.789 12.633 1.0547 1.3555 1.957 2.8594 2.6328 4.4727 4.4375 1.2031 8.4219-2.5938 9.2109-3.8711 6.9922-11.469 16.242-10.078 16.617-10 1.0156 0.15234 1.7305 1.1289 1.543 2.1445-0.15234 1.0156-1.1289 1.7305-2.1445 1.543-0.30078-0.039062-7.2188-0.90234-12.82 8.2734-1.5039 2.4805-5.7539 5.9766-10.715 5.9766-0.1875 0-0.41406-0.039062-0.64062-0.074219 0.1875 1.0547 0.33984 2.0664 0.33984 3.1602 0 0.375-0.11328 0.75391-0.11328 1.1641 1.2031 0.48828 3.5352 0.94141 6.1289-0.82812 0.1875-0.15234 5.8672-4.2852 11.691-1.0156 0.94141 0.48828 1.2422 1.6562 0.75391 2.5586-0.52734 0.90234-1.6562 1.2031-2.5586 0.71484-3.6836-2.0312-7.5586 0.71484-7.707 0.82812-2.1797 1.4648-4.25 1.957-6.0156 1.957-1.1289 0-2.0664-0.22656-2.8945-0.48828-0.22656 0.86328-0.41406 1.6914-0.75391 2.4805 2.4805 3.8359 7.9727 3.7617 9.3984 3.3086 12.934-3.7227 18.801 3.4961 19.062 3.7969 0.66016 0.80859 0.50781 1.9727-0.28125 2.6523z"/>
  <path d="m340.37 397.48 11.09 0.15234-6.0156 6.9922c-0.67578 0.78906-0.60156 1.9922 0.1875 2.668 0.33984 0.30078 0.78906 0.45312 1.2422 0.45312 0.52734 0 1.0547-0.22656 1.4297-0.64062l8.0469-9.3984 18.348 0.26172-13.195 12.82-12.07-0.52734c-1.1289-0.039063-1.918 0.75391-1.957 1.8047-0.039062 1.0547 0.75391 1.918 1.8047 1.957l8.4961 0.375-7.707 7.4805c-0.75391 0.71484-0.75391 1.918-0.039062 2.668 0.375 0.375 0.86328 0.5625 1.3555 0.5625 0.48828 0 0.94141-0.1875 1.3164-0.52734l7.9336-7.707 0.71484 9.2109c0.074219 0.97656 0.90234 1.7305 1.8789 1.7305h0.15234c1.0547-0.074218 1.8047-0.97656 1.7305-2.0312l-0.94141-12.332 13.121-12.785-0.26172 18.387-8.9102 8.1602c-0.75391 0.71484-0.82813 1.8789-0.11328 2.668 0.375 0.41406 0.86328 0.60156 1.3906 0.60156 0.45312 0 0.90234-0.15234 1.2773-0.48828l6.2773-5.7539-0.15234 10.754c0 1.0547 0.82812 1.8789 1.8438 1.918h0.039063c1.0156 0 1.8789-0.82812 1.8789-1.8438l0.15234-11.09 6.9922 6.0156c0.78906 0.67578 1.9922 0.60156 2.668-0.1875 0.67578-0.78906 0.60156-1.9922-0.1875-2.668l-9.3984-8.0469 0.64062-45.832 8.9102-8.1602c0.75391-0.71484 0.82812-1.8789 0.11328-2.668-0.71484-0.75391-1.8789-0.82812-2.668-0.11328l-6.2773 5.7539 0.15234-10.754c0-1.0547-0.82812-1.8789-1.8438-1.918h-0.039062c-1.0156 0-1.8789 0.82812-1.8789 1.8438l-0.15234 11.09-6.9922-6.0156c-0.78906-0.67578-1.957-0.60156-2.668 0.1875-0.67578 0.78906-0.60156 1.9922 0.1875 2.668l9.3984 8.0469-0.26172 18.348-12.82-13.195 0.52734-12.07c0.039063-1.0547-0.75391-1.918-1.8047-1.957-1.0547 0.039063-1.918 0.75391-1.957 1.8047l-0.375 8.4961-7.4805-7.707c-0.71484-0.75391-1.918-0.75391-2.668-0.039062-0.75391 0.71484-0.75391 1.918-0.039063 2.668l7.707 7.9336-9.2109 0.71484c-1.0547 0.074219-1.8047 0.97656-1.7305 2.0312 0.074218 0.97656 0.90234 1.7305 1.8789 1.7305h0.15234l12.332-0.94141 12.785 13.16-18.422-0.26172-8.1602-8.875c-0.71484-0.75391-1.8789-0.82812-2.668-0.11328-0.75391 0.71484-0.82812 1.8789-0.11328 2.668l5.7539 6.2773-10.754-0.15234h-0.039063c-1.0156 0-1.8789 0.82812-1.8789 1.8438 0.066406 1.0273 0.89453 1.8555 1.9453 1.8945z"/>
  <path d="m223.48 543.51c-0.86328 0.60156-1.0547 1.7656-0.45312 2.6328 13.121 18.801 0.48828 41.359-5.5273 50.191-0.60156 0.86328-0.375 2.0312 0.48828 2.5938 0.33984 0.22656 0.67578 0.33984 1.0547 0.33984 0.60156 0 1.2031-0.30078 1.543-0.82812 6.4688-9.4766 19.965-33.762 5.4883-54.48-0.5625-0.86328-1.7656-1.0508-2.5938-0.44922z"/>
  <path d="m250.73 541.59c-0.86328 0.60156-1.0547 1.7656-0.48828 2.6328 12.973 18.648 0.5625 42.262-5.375 51.547-0.5625 0.86328-0.30078 2.0312 0.5625 2.5938 0.30078 0.1875 0.67578 0.30078 1.0156 0.30078 0.60156 0 1.2422-0.30078 1.5781-0.86328 6.3555-9.9258 19.551-35.23 5.3008-55.719-0.5625-0.86719-1.7266-1.0547-2.5938-0.49219z"/>
  <path d="m277.17 541.59c-0.86328 0.60156-1.0547 1.7656-0.48828 2.6328 12.973 18.648 0.5625 42.262-5.375 51.547-0.5625 0.86328-0.30078 2.0312 0.5625 2.5938 0.30078 0.1875 0.67578 0.30078 1.0156 0.30078 0.60156 0 1.2422-0.30078 1.5781-0.86328 6.3555-9.9258 19.551-35.23 5.3008-55.719-0.56641-0.86719-1.7695-1.0547-2.5938-0.49219z"/>
  <path d="m303.6 541.59c-0.86328 0.60156-1.0547 1.7656-0.48828 2.6328 12.973 18.648 0.5625 42.262-5.375 51.547-0.5625 0.86328-0.30078 2.0312 0.5625 2.5938 0.30078 0.1875 0.67578 0.30078 1.0156 0.30078 0.60156 0 1.2422-0.30078 1.5781-0.86328 6.3555-9.9258 19.551-35.23 5.3008-55.719-0.60156-0.86719-1.7656-1.0547-2.5938-0.49219z"/>
  <path d="m332.96 543.51c-0.86328 0.60156-1.0547 1.7656-0.45313 2.6328 13.121 18.801 0.48828 41.359-5.5273 50.191-0.60156 0.86328-0.375 2.0312 0.48828 2.5938 0.33984 0.22656 0.67578 0.33984 1.0547 0.33984 0.60156 0 1.2031-0.30078 1.543-0.82812 6.4688-9.4766 19.926-33.762 5.4883-54.48-0.5625-0.86328-1.7656-1.0508-2.5938-0.44922z"/>
  <path d="m360.22 541.59c-0.86328 0.60156-1.0547 1.7656-0.48828 2.6328 12.973 18.648 0.5625 42.262-5.375 51.547-0.5625 0.86328-0.30078 2.0312 0.5625 2.5938 0.30078 0.1875 0.67578 0.30078 1.0156 0.30078 0.60156 0 1.2422-0.30078 1.5781-0.86328 6.3555-9.9258 19.551-35.23 5.3008-55.719-0.5625-0.86719-1.7266-1.0547-2.5938-0.49219z"/>
  <path d="m386.65 541.59c-0.86328 0.60156-1.0547 1.7656-0.48828 2.6328 12.973 18.648 0.5625 42.262-5.375 51.547-0.5625 0.86328-0.30078 2.0312 0.5625 2.5938 0.30078 0.1875 0.67578 0.30078 1.0156 0.30078 0.60156 0 1.2422-0.30078 1.5781-0.86328 6.3555-9.9258 19.551-35.23 5.3008-55.719-0.56641-0.86719-1.7695-1.0547-2.5938-0.49219z"/>
  <path d="m413.08 541.59c-0.86328 0.60156-1.0547 1.7656-0.48828 2.6328 12.973 18.648 0.5625 42.262-5.375 51.547-0.5625 0.86328-0.30078 2.0312 0.5625 2.5938 0.30078 0.1875 0.67578 0.30078 1.0156 0.30078 0.60156 0 1.2422-0.30078 1.5781-0.86328 6.3555-9.9258 19.551-35.23 5.3008-55.719-0.60156-0.86719-1.7656-1.0547-2.5938-0.49219z"/>
  <path d="m439.48 541.59c-0.86328 0.60156-1.0547 1.7656-0.48828 2.6328 12.973 18.648 0.5625 42.262-5.375 51.547-0.5625 0.86328-0.30078 2.0312 0.5625 2.5938 0.30078 0.1875 0.67578 0.30078 1.0156 0.30078 0.60156 0 1.2422-0.30078 1.5781-0.86328 6.3555-9.9258 19.551-35.23 5.3008-55.719-0.5625-0.86719-1.7305-1.0547-2.5938-0.49219z"/>
  <path d="m465.91 541.59c-0.86328 0.60156-1.0547 1.7656-0.48828 2.6328 12.973 18.648 0.5625 42.262-5.375 51.547-0.5625 0.86328-0.30078 2.0312 0.5625 2.5938 0.30078 0.1875 0.67578 0.30078 1.0156 0.30078 0.60156 0 1.2422-0.30078 1.5781-0.86328 6.3555-9.9258 19.551-35.23 5.3008-55.719-0.5625-0.86719-1.7266-1.0547-2.5938-0.49219z"/>
  <path d="m497.34 543.51c-0.86328 0.60156-1.0547 1.7656-0.45312 2.6328 13.121 18.801 0.48828 41.359-5.5273 50.191-0.60156 0.86328-0.375 2.0312 0.48828 2.5938 0.33984 0.22656 0.67578 0.33984 1.0547 0.33984 0.60156 0 1.2031-0.30078 1.543-0.82812 6.4688-9.4766 19.926-33.762 5.4883-54.48-0.5625-0.86328-1.7305-1.0508-2.5938-0.44922z"/>
  <path d="m524.64 541.59c-0.86328 0.60156-1.0547 1.7656-0.48828 2.6328 12.973 18.648 0.5625 42.262-5.375 51.547-0.5625 0.86328-0.30078 2.0312 0.5625 2.5938 0.30078 0.1875 0.67578 0.30078 1.0156 0.30078 0.60156 0 1.2422-0.30078 1.5781-0.86328 6.3555-9.9258 19.551-35.23 5.3008-55.719-0.60156-0.86719-1.7695-1.0547-2.5938-0.49219z"/>
  <path d="m551.03 541.59c-0.86328 0.60156-1.0547 1.7656-0.48828 2.6328 12.973 18.648 0.5625 42.262-5.375 51.547-0.5625 0.86328-0.30078 2.0312 0.5625 2.5938 0.30078 0.1875 0.67578 0.30078 1.0156 0.30078 0.60156 0 1.2422-0.30078 1.5781-0.86328 6.3555-9.9258 19.551-35.23 5.3008-55.719-0.5625-0.86719-1.7266-1.0547-2.5938-0.49219z"/>
  <path d="m577.46 541.59c-0.86328 0.60156-1.0547 1.7656-0.48828 2.6328 12.973 18.648 0.5625 42.262-5.375 51.547-0.5625 0.86328-0.30078 2.0312 0.5625 2.5938 0.30078 0.1875 0.67578 0.30078 1.0156 0.30078 0.60156 0 1.2422-0.30078 1.5781-0.86328 6.3555-9.9258 19.551-35.23 5.3008-55.719-0.56641-0.86719-1.7695-1.0547-2.5938-0.49219z"/>
 </g>
</svg>