<svg width="48" height="48" viewBox="0 0 48 48" fill="none" xmlns="http://www.w3.org/2000/svg">
<path d="M37 6H32C31.7348 6 31.4804 6.10536 31.2929 6.29289C31.1054 6.48043 31 6.73478 31 7V7.118L38 12.718V7C38 6.73478 37.8946 6.48043 37.7071 6.29289C37.5196 6.10536 37.2652 6 37 6Z" fill="white"/>
<path d="M21.5 19C21.5 18.337 21.7634 17.7011 22.2322 17.2322C22.7011 16.7634 23.337 16.5 24 16.5C24.663 16.5 25.2989 16.7634 25.7678 17.2322C26.2366 17.7011 26.5 18.337 26.5 19C26.5 19.663 26.2366 20.2989 25.7678 20.7678C25.2989 21.2366 24.663 21.5 24 21.5C23.337 21.5 22.7011 21.2366 22.2322 20.7678C21.7634 20.2989 21.5 19.663 21.5 19Z" fill="white"/>
<path fill-rule="evenodd" clip-rule="evenodd" d="M41.5 21.92L43.064 23.172C43.3753 23.4146 43.7698 23.5248 44.1618 23.4785C44.5538 23.4323 44.9118 23.2334 45.1581 22.9249C45.4044 22.6165 45.5193 22.2234 45.4777 21.8309C45.4361 21.4383 45.2415 21.078 44.936 20.828L28.686 7.82801C27.356 6.76374 25.7034 6.1839 24 6.1839C22.2966 6.1839 20.644 6.76374 19.314 7.82801L3.064 20.828C2.75317 21.0765 2.55378 21.4383 2.50971 21.8338C2.46564 22.2294 2.58049 22.6262 2.829 22.937C3.07751 23.2478 3.43932 23.4472 3.83483 23.4913C4.23034 23.5354 4.62717 23.4205 4.938 23.172L6.5 21.92V42.5H4C3.60218 42.5 3.22064 42.658 2.93934 42.9394C2.65804 43.2207 2.5 43.6022 2.5 44C2.5 44.3978 2.65804 44.7794 2.93934 45.0607C3.22064 45.342 3.60218 45.5 4 45.5H44C44.3978 45.5 44.7794 45.342 45.0607 45.0607C45.342 44.7794 45.5 44.3978 45.5 44C45.5 43.6022 45.342 43.2207 45.0607 42.9394C44.7794 42.658 44.3978 42.5 44 42.5H41.5V21.92ZM18.5 19C18.5 17.5413 19.0795 16.1424 20.1109 15.1109C21.1424 14.0795 22.5413 13.5 24 13.5C25.4587 13.5 26.8576 14.0795 27.8891 15.1109C28.9205 16.1424 29.5 17.5413 29.5 19C29.5 20.4587 28.9205 21.8577 27.8891 22.8891C26.8576 23.9206 25.4587 24.5 24 24.5C22.5413 24.5 21.1424 23.9206 20.1109 22.8891C19.0795 21.8577 18.5 20.4587 18.5 19ZM24.1 26.5C25.428 26.5 26.574 26.5 27.492 26.624C28.476 26.756 29.418 27.054 30.182 27.818C30.946 28.582 31.244 29.524 31.376 30.508C31.492 31.368 31.5 32.428 31.5 33.654V42.5H28.5V34C28.5 32.544 28.496 31.6 28.404 30.908C28.316 30.258 28.176 30.054 28.06 29.94C27.944 29.826 27.742 29.684 27.092 29.596C26.398 29.504 25.456 29.5 24 29.5C22.544 29.5 21.6 29.504 20.908 29.596C20.258 29.684 20.054 29.826 19.94 29.94C19.826 30.054 19.684 30.258 19.596 30.908C19.504 31.602 19.5 32.544 19.5 34V42.5H16.5V33.9C16.5 32.572 16.5 31.426 16.624 30.508C16.756 29.524 17.054 28.582 17.818 27.818C18.582 27.054 19.526 26.756 20.508 26.624C21.426 26.5 22.572 26.5 23.902 26.5H24.1Z" fill="white"/>
<path d="M21.5 19C21.5 18.337 21.7634 17.7011 22.2322 17.2322C22.7011 16.7634 23.337 16.5 24 16.5C24.663 16.5 25.2989 16.7634 25.7678 17.2322C26.2366 17.7011 26.5 18.337 26.5 19C26.5 19.663 26.2366 20.2989 25.7678 20.7678C25.2989 21.2366 24.663 21.5 24 21.5C23.337 21.5 22.7011 21.2366 22.2322 20.7678C21.7634 20.2989 21.5 19.663 21.5 19Z" fill="white"/>
</svg>
