<svg width="16" height="19" viewBox="0 0 16 19" fill="none" xmlns="http://www.w3.org/2000/svg">
<path fill-rule="evenodd" clip-rule="evenodd" d="M8.39827 18.0909C10.0148 17.2614 16 13.7987 16 8C16 3.58172 12.4183 0 8 0C3.58172 0 0 3.58172 0 8C0 13.7987 5.98521 17.2614 7.60173 18.0909C7.85516 18.2209 8.14484 18.2209 8.39827 18.0909ZM8 11.4286C9.89355 11.4286 11.4286 9.89355 11.4286 8C11.4286 6.10645 9.89355 4.57143 8 4.57143C6.10645 4.57143 4.57143 6.10645 4.57143 8C4.57143 9.89355 6.10645 11.4286 8 11.4286Z" fill="white" fill-opacity="0.5"/>
</svg>
