<svg width="21" height="18" viewBox="0 0 21 18" fill="none" xmlns="http://www.w3.org/2000/svg">
<path fill-rule="evenodd" clip-rule="evenodd" d="M1.0696 1.64333C0.190918 2.52201 0.190918 3.93622 0.190918 6.76465V11.2352C0.190918 14.0637 0.190918 15.4779 1.0696 16.3566C1.94828 17.2352 3.36249 17.2352 6.19092 17.2352H14.8091C17.6375 17.2352 19.0517 17.2352 19.9304 16.3566C20.8091 15.4779 20.8091 14.0637 20.8091 11.2352V6.76465C20.8091 3.93622 20.8091 2.52201 19.9304 1.64333C19.0517 0.764648 17.6375 0.764648 14.8091 0.764648H6.19092C3.36249 0.764648 1.94828 0.764648 1.0696 1.64333ZM4.19225 4.64542C3.73655 4.3334 3.11419 4.44986 2.80217 4.90556C2.49015 5.36126 2.60662 5.98362 3.06231 6.29564L9.37007 10.6147C10.0512 11.081 10.9488 11.081 11.6299 10.6147L17.9377 6.29564C18.3934 5.98362 18.5099 5.36126 18.1978 4.90556C17.8858 4.44986 17.2635 4.3334 16.8078 4.64542L10.5 8.96446L4.19225 4.64542Z" fill="white"/>
</svg>
