<svg width="25" height="24" viewBox="0 0 25 24" fill="none" xmlns="http://www.w3.org/2000/svg">
<path d="M9.77385 5.448C10.3719 3.698 12.7899 3.645 13.4989 5.289L13.5589 5.449L14.3659 7.809C14.5508 8.35023 14.8497 8.84551 15.2423 9.26142C15.6349 9.67734 16.1122 10.0042 16.6419 10.22L16.8589 10.301L19.2189 11.107C20.9689 11.705 21.0219 14.123 19.3789 14.832L19.2189 14.892L16.8589 15.699C16.3174 15.8838 15.822 16.1826 15.4059 16.5753C14.9898 16.9679 14.6627 17.4452 14.4469 17.975L14.3659 18.191L13.5599 20.552C12.9619 22.302 10.5439 22.355 9.83585 20.712L9.77385 20.552L8.96785 18.192C8.78303 17.6506 8.48422 17.1551 8.09159 16.739C7.69896 16.3229 7.22165 15.9959 6.69185 15.78L6.47585 15.699L4.11585 14.893C2.36485 14.295 2.31185 11.877 3.95585 11.169L4.11585 11.107L6.47585 10.301C7.01709 10.1161 7.51236 9.81719 7.92828 9.42457C8.34419 9.03195 8.67106 8.55469 8.88685 8.025L8.96785 7.809L9.77385 5.448ZM19.6669 2C19.8539 2 20.0373 2.05248 20.196 2.15147C20.3547 2.25046 20.4825 2.392 20.5649 2.56L20.6129 2.677L20.9629 3.703L21.9899 4.053C22.1773 4.1167 22.3417 4.23462 22.4621 4.39182C22.5825 4.54902 22.6535 4.73842 22.6661 4.93602C22.6788 5.13362 22.6325 5.33053 22.5331 5.50179C22.4337 5.67304 22.2857 5.81094 22.1079 5.898L21.9899 5.946L20.9639 6.296L20.6139 7.323C20.55 7.51043 20.432 7.6747 20.2748 7.79499C20.1175 7.91529 19.9281 7.98619 19.7305 7.99872C19.5329 8.01125 19.336 7.96484 19.1648 7.86538C18.9936 7.76591 18.8558 7.61787 18.7689 7.44L18.7209 7.323L18.3709 6.297L17.3439 5.947C17.1564 5.8833 16.992 5.76538 16.8716 5.60819C16.7512 5.45099 16.6802 5.26158 16.6676 5.06398C16.6549 4.86638 16.7012 4.66947 16.8006 4.49821C16.9 4.32696 17.048 4.18906 17.2259 4.102L17.3439 4.054L18.3699 3.704L18.7199 2.677C18.7873 2.47943 18.9149 2.30791 19.0847 2.1865C19.2545 2.06509 19.4581 1.99987 19.6669 2Z" fill="white"/>
</svg>
